<svg id="Capa_1" enable-background="new 0 0 512 512" height="512" viewBox="0 0 512 512" width="512" xmlns="http://www.w3.org/2000/svg"><g><path d="m75.5 237c0 16.542 13.458 30 30 30s30-13.458 30-30-13.458-30-30-30-30 13.458-30 30zm45 0c0 8.271-6.729 15-15 15s-15-6.729-15-15 6.729-15 15-15 15 6.729 15 15z"/><path d="m474.5 43.5h-150c-20.678 0-37.5 16.822-37.5 37.5v50.5h-214c-4.143 0-7.5 3.358-7.5 7.5s3.357 7.5 7.5 7.5h214v15h-246.5c-5.79 0-10.5 4.71-10.5 10.5v256c0 5.79 4.71 10.5 10.5 10.5h383c5.79 0 10.5-4.71 10.5-10.5v-132c0-4.142-3.357-7.5-7.5-7.5s-7.5 3.358-7.5 7.5v97.5h-34.425l-74.504-100.411c-4.289-5.776-10.876-9.089-18.071-9.089s-13.782 3.313-18.073 9.091l-17.94 24.179-45.639-61.505c-4.288-5.778-10.874-9.092-18.069-9.092s-13.781 3.314-18.069 9.092l-102.205 137.735h-27.005v-217h242v54.5c0 20.678 16.822 37.5 37.5 37.5h124.5v177.5c0 4.136-3.364 7.5-7.5 7.5h-419c-4.136 0-7.5-3.364-7.5-7.5v-292c0-4.136 3.364-7.5 7.5-7.5h15.5c4.143 0 7.5-3.358 7.5-7.5s-3.357-7.5-7.5-7.5h-15.5c-12.406 0-22.5 10.093-22.5 22.5v292c0 12.407 10.094 22.5 22.5 22.5h419c12.406 0 22.5-10.093 22.5-22.5v-177.5h10.5c20.678 0 37.5-16.822 37.5-37.5v-150c0-20.678-16.822-37.5-37.5-37.5zm-188.528 258.531c2.798-4.005 9.258-4.005 12.055-.002l67.87 91.471h-53.344l-47.226-63.644zm-99.716-37.328c2.796-4.005 9.249-4.004 12.046 0l95.572 128.797h-203.191zm232.744 143.797v15h-374v-15zm78-177.5c0 12.407-10.094 22.5-22.5 22.5h-150c-12.406 0-22.5-10.093-22.5-22.5v-150c0-12.407 10.094-22.5 22.5-22.5h150c12.406 0 22.5 10.093 22.5 22.5z"/><path d="m469.5 163.5h-17.5v-47.5c0-6.893-5.607-12.5-12.5-12.5h-47.5v-17.5c0-6.893-5.607-12.5-12.5-12.5h-20c-6.893 0-12.5 5.607-12.5 12.5v17.5h-17.5c-6.893 0-12.5 5.607-12.5 12.5v20c0 6.893 5.607 12.5 12.5 12.5h17.5v47.5c0 6.893 5.607 12.5 12.5 12.5h47.5v17.5c0 6.893 5.607 12.5 12.5 12.5h20c6.893 0 12.5-5.607 12.5-12.5v-17.5h17.5c6.893 0 12.5-5.607 12.5-12.5v-20c0-6.893-5.607-12.5-12.5-12.5zm-32.5-45v45h-15v-19.5c0-5.79-4.71-10.5-10.5-10.5h-19.5v-15zm-45 30h15v15h-15zm-60-15v-15h15v15zm105 90h-15v-15h15zm30-30h-105v-105h15v79.5c0 5.79 4.71 10.5 10.5 10.5h79.5z"/></g></svg>